<svg width="40" height="40" viewBox="0 0 40 40" fill="none" xmlns="http://www.w3.org/2000/svg">
<path fill-rule="evenodd" clip-rule="evenodd" d="M38 20C38 29.9411 29.9411 38 20 38C10.0589 38 2 29.9411 2 20C2 10.0589 10.0589 2 20 2C29.9411 2 38 10.0589 38 20ZM20 40C31.0457 40 40 31.0457 40 20C40 8.9543 31.0457 0 20 0C8.95431 0 0 8.9543 0 20C0 31.0457 8.95431 40 20 40ZM22.7826 14.7654L17.6883 20.003L22.7769 25.2345C23.0673 25.533 23.0673 26.019 22.7769 26.3175L22.3306 26.7762C22.1904 26.9206 22.0034 27 21.8039 27C21.6043 27 21.4173 26.9206 21.2771 26.7762L15.2172 20.5465C15.0764 20.4018 14.9994 20.2089 15 20.0026C14.9994 19.7973 15.0765 19.6041 15.2172 19.4596L21.2828 13.2238C21.4229 13.0794 21.6099 13 21.8094 13C22.0089 13 22.1961 13.0794 22.3362 13.2238L22.7826 13.6825C22.9228 13.8266 23 14.0188 23 14.224C23 14.4291 22.9228 14.6215 22.7826 14.7654Z" fill="#F59075"/>
</svg>
