<svg width="40" height="40" viewBox="0 0 40 40" fill="none" xmlns="http://www.w3.org/2000/svg">
<path d="M-4.02558e-06 20C2.17835e-06 8.95431 8.95431 1.30804e-05 20 1.92844e-05C31.0457 2.54883e-05 40 8.95433 40 20C40 31.0457 31.0457 40 20 40C8.95429 40 -1.02295e-05 31.0457 -4.02558e-06 20Z" fill="#BA3F1D"/>
<path fill-rule="evenodd" clip-rule="evenodd" d="M22.3117 19.997L17.2174 25.2346C17.0772 25.3785 17 25.5709 17 25.776C17 25.9812 17.0772 26.1734 17.2174 26.3175L17.6638 26.7762C17.8039 26.9206 17.9911 27 18.1906 27C18.3901 27 18.5771 26.9206 18.7172 26.7762L24.7828 20.5404C24.9235 20.3959 25.0005 20.2027 25 19.9974C25.0005 19.7911 24.9236 19.5982 24.7828 19.4535L18.7229 13.2238C18.5827 13.0795 18.3957 13 18.1961 13C17.9966 13 17.8096 13.0795 17.6693 13.2238L17.2231 13.6825C16.9327 13.981 16.9327 14.4671 17.2231 14.7655L22.3117 19.997Z" fill="white"/>
</svg>
