<svg width="40" height="40" viewBox="0 0 40 40" fill="none" xmlns="http://www.w3.org/2000/svg">
<path fill-rule="evenodd" clip-rule="evenodd" d="M38 20C38 29.9411 29.9411 38 20 38C10.0589 38 2 29.9411 2 20C2 10.0589 10.0589 2 20 2C29.9411 2 38 10.0589 38 20ZM20 40C31.0457 40 40 31.0457 40 20C40 8.9543 31.0457 0 20 0C8.95431 0 0 8.9543 0 20C0 31.0457 8.95431 40 20 40ZM17.2174 14.7654L22.3117 20.003L17.2231 25.2345C16.9327 25.533 16.9327 26.019 17.2231 26.3175L17.6694 26.7762C17.8096 26.9206 17.9966 27 18.1961 27C18.3957 27 18.5827 26.9206 18.7229 26.7762L24.7828 20.5465C24.9236 20.4018 25.0005 20.2089 25 20.0026C25.0005 19.7973 24.9235 19.6041 24.7828 19.4596L18.7172 13.2238C18.5771 13.0794 18.3901 13 18.1906 13C17.9911 13 17.8039 13.0794 17.6638 13.2238L17.2174 13.6825C17.0772 13.8266 17 14.0188 17 14.224C17 14.4291 17.0772 14.6215 17.2174 14.7654Z" fill="#F59075"/>
</svg>
