<svg width="40" height="40" viewBox="0 0 40 40" fill="none" xmlns="http://www.w3.org/2000/svg">
<path fill-rule="evenodd" clip-rule="evenodd" d="M38 20C38 29.9411 29.9411 38 20 38C10.0589 38 2 29.9411 2 20C2 10.0589 10.0589 2 20 2C29.9411 2 38 10.0589 38 20ZM20 40C31.0457 40 40 31.0457 40 20C40 8.9543 31.0457 0 20 0C8.95431 0 0 8.9543 0 20C0 31.0457 8.95431 40 20 40ZM14.7654 22.7826L20.003 17.6883L25.2345 22.7769C25.533 23.0673 26.019 23.0673 26.3175 22.7769L26.7762 22.3306C26.9205 22.1904 27 22.0034 27 21.8039C27 21.6043 26.9205 21.4173 26.7762 21.2771L20.5465 15.2172C20.4018 15.0764 20.2089 14.9995 20.0026 15C19.7973 14.9995 19.6041 15.0765 19.4596 15.2172L13.2238 21.2828C13.0794 21.4229 13 21.6099 13 21.8094C13 22.0089 13.0794 22.1961 13.2238 22.3362L13.6825 22.7826C13.8266 22.9228 14.0188 23 14.224 23C14.4291 23 14.6215 22.9228 14.7654 22.7826Z" fill="#F59075"/>
</svg>
