<?xml version="1.0" encoding="utf-8"?>
<svg version="1.1" xmlns="http://www.w3.org/2000/svg" xmlns:xlink="http://www.w3.org/1999/xlink" height="76" width="76">
  <defs>
    <path id="path-1" opacity="1" fill-rule="evenodd" d="M38.00000000000001,0 C58.972770930772,0 76,17.027229069227996 76,38.00000000000001 C76,58.972770930772 58.972770930772,76 37.99999999999999,76 C17.027229069228003,76 7.105427357601002e-15,58.972770930772 0,37.99999999999999 C0,17.027229069228003 17.02722906922799,7.105427357601002e-15 37.999999999999986,0 L38.00000000000001,0Z"/>
    <mask id="mask-2" maskUnits="userSpaceOnUse" maskContentUnits="userSpaceOnUse" x="0" y="0">
      <rect opacity="1" x="0" y="0" width="76" height="76" fill="black"/>
      <use xlink:href="#path-1" fill="white"/>
    </mask>
    <path id="path-3" opacity="1" fill-rule="evenodd" d="M38,8 C54.55745073482,8 68,21.442549265180002 68,38 C68,54.557450734819994 54.55745073482,68 38,68 C21.442549265180006,68 8.000000000000004,54.55745073482 8,38 C8,21.442549265180006 21.442549265179995,8.000000000000004 37.99999999999999,8 L38,8Z"/>
    <path id="path-4" opacity="1" fill-rule="evenodd" d="M21.800982456140286,0.13146303501946777 C21.534526315789407,0.056731517509739635 21.259017543859585,0.0014708171206354592 20.968631578947303,0.0014708171206354592 L3.0037192982455503,0.0014708171206354592 C2.713263157894673,0.0014708171206354592 2.437824561403445,0.056731517509739635 2.1713684210525677,0.13293385214009137 L11.986175438596428,7.128630350194565 L21.800982456140286,0.13146303501946777Z"/>
    <path id="path-5" opacity="1" fill-rule="evenodd" d="M12.855929824561308,10.18120622568094 C12.595438596491132,10.366459143968875 12.29150877192973,10.46059143968872 11.986105263157798,10.46059143968872 C11.680701754385867,10.46059143968872 11.376771929824464,10.367929961089498 11.116280701754288,10.18120622568094 L0.09185964912270812,2.3219299610894977 C0.04245614035077831,2.537089494163428 0.0095438596490239,2.7582023346303526 0.0095438596490239,2.9898210116731554 L0.0095438596490239,14.94315175097277 C0.0095438596490239,16.589696498054483 1.35242105263148,17.9315019455253 3.003719298245515,17.9315019455253 L20.968631578947267,17.9315019455253 C22.619929824561304,17.9315019455253 23.962807017543764,16.58976653696499 23.962807017543764,14.94315175097277 L23.962807017543764,2.9898210116731554 C23.962807017543764,2.7597431906614807 23.931368421052536,2.537089494163428 23.88049122807008,2.323400778210121 L12.855929824561308,10.18120622568094Z"/>
  </defs>
  <g opacity="1">
    <g opacity="0.2">
      <use xlink:href="#path-1" fill-opacity="0" stroke="rgb(186,63,29)" stroke-opacity="1" stroke-width="4" mask="url(#mask-2)"/>
    </g>
    <g opacity="1">
      <use xlink:href="#path-3" fill="rgb(186,63,29)" fill-opacity="1"/>
    </g>
    <g transform="translate(26, 29)" opacity="1">
      <g opacity="1">
        <g opacity="1">
          <use xlink:href="#path-4" fill="rgb(255,255,255)" fill-opacity="1"/>
        </g>
        <g opacity="1">
          <use xlink:href="#path-5" fill="rgb(255,255,255)" fill-opacity="1"/>
        </g>
      </g>
    </g>
  </g>
</svg>