<?xml version="1.0" encoding="utf-8"?>
<svg version="1.1" xmlns="http://www.w3.org/2000/svg" xmlns:xlink="http://www.w3.org/1999/xlink" height="76" width="76">
  <defs>
    <path id="path-1" opacity="1" fill-rule="evenodd" d="M38.00000000000001,0 C58.972770930772,0 76,17.027229069227996 76,38.00000000000001 C76,58.972770930772 58.972770930772,76 37.99999999999999,76 C17.027229069228003,76 7.105427357601002e-15,58.972770930772 0,37.99999999999999 C0,17.027229069228003 17.02722906922799,7.105427357601002e-15 37.999999999999986,0 L38.00000000000001,0Z"/>
    <mask id="mask-2" maskUnits="userSpaceOnUse" maskContentUnits="userSpaceOnUse" x="0" y="0">
      <rect opacity="1" x="0" y="0" width="76" height="76" fill="black"/>
      <use xlink:href="#path-1" fill="white"/>
    </mask>
    <path id="path-3" opacity="1" fill-rule="evenodd" d="M38,8 C54.55745073482,8 68,21.442549265180002 68,38 C68,54.557450734819994 54.55745073482,68 38,68 C21.442549265180006,68 8.000000000000004,54.55745073482 8,38 C8,21.442549265180006 21.442549265179995,8.000000000000004 37.99999999999999,8 L38,8Z"/>
    <path id="path-4" opacity="1" fill-rule="evenodd" d="M10.493622779846191,-3 L10.506377220153809,-3 C17.395408630371094,-3 23,2.6641407012939453 23,9.626367568969727 C23,12.331464767456055 22.117856979370117,15.014778137207031 20.516199111938477,17.182077407836914 L11.04323959350586,30 L9.956696510314941,30 L0.48380112648010254,17.18201446533203 C-1.1178572177886963,15.014778137207031 -2,12.331464767456055 -2,9.626367568969727 C-2,2.6641407012939453 3.6045918464660645,-3 10.493622779846191,-3 L6.673469543457031,9.310546875 C6.673469543457031,11.442914009094238 8.390050888061523,13.177734375 10.5,13.177734375 C12.609949111938477,13.177734375 14.326530456542969,11.442914009094238 14.326530456542969,9.310546875 C14.326530456542969,7.178179740905762 12.609949111938477,5.443359375 10.5,5.443359375 C8.390050888061523,5.443359375 6.673469543457031,7.178179740905762 6.673469543457031,9.310546875 L10.493622779846191,-3Z"/>
  </defs>
  <g opacity="1">
    <g opacity="0.2">
      <use xlink:href="#path-1" fill-opacity="0" stroke="rgb(186,63,29)" stroke-opacity="1" stroke-width="4" mask="url(#mask-2)"/>
    </g>
    <g opacity="1">
      <use xlink:href="#path-3" fill="rgb(186,63,29)" fill-opacity="1"/>
    </g>
    <g transform="translate(28, 25)" opacity="1">
      <g opacity="1">
        <use xlink:href="#path-4" fill="rgb(255,255,255)" fill-opacity="1"/>
      </g>
    </g>
  </g>
</svg>