<?xml version="1.0" encoding="utf-8"?>
<svg version="1.1" xmlns="http://www.w3.org/2000/svg" xmlns:xlink="http://www.w3.org/1999/xlink" height="76" width="76">
  <defs>
    <path id="path-1" opacity="1" fill-rule="evenodd" d="M38.00000000000001,0 C58.972770930772,0 76,17.027229069227996 76,38.00000000000001 C76,58.972770930772 58.972770930772,76 37.99999999999999,76 C17.027229069228003,76 7.105427357601002e-15,58.972770930772 0,37.99999999999999 C0,17.027229069228003 17.02722906922799,7.105427357601002e-15 37.999999999999986,0 L38.00000000000001,0Z"/>
    <mask id="mask-2" maskUnits="userSpaceOnUse" maskContentUnits="userSpaceOnUse" x="0" y="0">
      <rect opacity="1" x="0" y="0" width="76" height="76" fill="black"/>
      <use xlink:href="#path-1" fill="white"/>
    </mask>
    <path id="path-3" opacity="1" fill-rule="evenodd" d="M38,8 C54.55745073482,8 68,21.442549265180002 68,38 C68,54.557450734819994 54.55745073482,68 38,68 C21.442549265180006,68 8.000000000000004,54.55745073482 8,38 C8,21.442549265180006 21.442549265179995,8.000000000000004 37.99999999999999,8 L38,8Z"/>
    <path id="path-4" opacity="1" fill-rule="evenodd" d="M23.951502590673577,18.90686010362696 C24.00227979274612,19.295875647668417 23.883730569948188,19.634113989637328 23.59635233160622,19.921575129533704 L20.222424870466323,23.27001036269433 C20.07021761658031,23.439129533678784 19.87154404145078,23.58300518134718 19.626321243523314,23.70126424870469 C19.381098445595857,23.81968911917101 19.140145077720206,23.895792746114015 18.903461139896372,23.92957512953371 C18.886549222797925,23.92957512953371 18.835689119170986,23.933927461139927 18.751088082901553,23.942383419689147 C18.666652849740935,23.950797927461167 18.556725388601034,23.955108808290184 18.421430051813473,23.955108808290184 C18.100020725388603,23.955108808290184 17.5799378238342,23.900145077720236 16.86118134715026,23.790176165803135 C16.14242487046632,23.680207253886035 15.263046632124354,23.409575129533707 14.223046632124353,22.97840414507775 C13.18279792746114,22.547150259067386 12.003233160621763,21.90018652849744 10.684145077720206,21.037761658031116 C9.365056994818653,20.17537823834199 7.9613264248704665,18.991461139896398 6.473077720207254,17.486259067357537 C5.289243523316062,16.31933678756479 4.308352331606218,15.203150259067378 3.5304041450777204,14.137740932642505 C2.752455958549223,13.072248704663231 2.1267150259067362,12.087129533678771 1.6531813471502597,11.18234196891193 C1.179606217616581,10.27755440414509 0.8244559585492234,9.457326424870477 0.587689119170985,8.721658031088092 C0.3509222797927467,7.985989637305709 0.19025906735751308,7.351792746113998 0.1056994818652851,6.819067357512961 C0.021139896373057115,6.286341968911924 -0.01268393782383407,5.867772020725396 0.0042279792746115225,5.563357512953374 C0.021139896373057115,5.258943005181353 0.029595854922279917,5.089823834196896 0.029595854922279917,5.0560000000000045 C0.0634196891191711,4.819233160621766 0.1395233160621763,4.578238341968917 0.2579067357512954,4.333015544041455 C0.3762901554404146,4.087792746113994 0.5200414507772021,3.889077720207257 0.689160621761658,3.7368704663212466 L4.0630880829015545,0.3629430051813472 C4.299854922279793,0.1261761658031086 4.570445595854922,0.007792746113989269 4.874860103626943,0.007792746113989269 C5.094715025906736,0.007792746113989269 5.28920207253886,0.07121243523316033 5.458321243523317,0.19805181347150244 C5.627440414507773,0.32489119170984454 5.77119170984456,0.4813264248704665 5.88957512953368,0.6673575129533683 L8.603937823834196,5.8170362694300595 C8.756145077720207,6.087626943005189 8.79842487046632,6.383585492227987 8.73077720207254,6.704911917098456 C8.663129533678756,7.026238341968923 8.519378238341968,7.296829015544051 8.299523316062176,7.516683937823845 L7.0564974093264246,8.759709844559596 C7.0226735751295335,8.793533678756488 6.993077720207253,8.848497409326436 6.967709844559586,8.924601036269442 C6.942341968911918,9.000704663212447 6.929658031088083,9.064124352331618 6.929658031088083,9.114860103626956 C6.997305699481865,9.470010362694314 7.149512953367876,9.875896373057007 7.386279792746113,10.33251813471504 C7.58922279792746,10.738404145077732 7.902093264248703,11.233077720207268 8.324891191709844,11.816538860103643 C8.747689119170984,12.400000000000018 9.348062176165802,13.07220725388603 10.1260103626943,13.833243523316082 C10.88704663212435,14.611274611398981 11.563523316062176,15.21579274611401 12.155440414507773,15.647129533678777 C12.74723316062176,16.078217616580332 13.242072538860103,16.395440414507792 13.639502590673576,16.598383419689142 C14.036932642487049,16.80132642487049 14.341347150259066,16.92393782383422 14.552704663212435,16.966093264248727 L14.869720207253888,17.029554404145102 C14.903544041450777,17.029554404145102 14.958632124352333,17.01682901554406 15.034652849740931,16.991502590673598 C15.110756476683939,16.966093264248727 15.165720207253885,16.93653886010365 15.199585492227978,16.90267357512956 L16.645512953367877,15.43133678756479 C16.950093264248707,15.160787564766864 17.30507772020725,15.025492227979296 17.71100518134715,15.025492227979296 C17.998590673575126,15.025492227979296 18.226777202072537,15.076186528497432 18.395896373056996,15.177699481865309 L18.42122279792746,15.177699481865309 L23.317181347150257,18.06963730569951 C23.67245595854922,18.289658031088102 23.88381347150259,18.568621761658054 23.951502590673577,18.90686010362696Z"/>
  </defs>
  <g opacity="1">
    <g opacity="0.2">
      <use xlink:href="#path-1" fill-opacity="0" stroke="rgb(186,63,29)" stroke-opacity="1" stroke-width="4" mask="url(#mask-2)"/>
    </g>
    <g opacity="1">
      <use xlink:href="#path-3" fill="rgb(186,63,29)" fill-opacity="1"/>
    </g>
    <g transform="translate(26, 26.020725388601022)" opacity="1">
      <g opacity="1">
        <use xlink:href="#path-4" fill="rgb(255,255,255)" fill-opacity="1"/>
      </g>
    </g>
  </g>
</svg>