<svg width="61" height="49" viewBox="0 0 61 49" fill="none" xmlns="http://www.w3.org/2000/svg">
<path fill-rule="evenodd" clip-rule="evenodd" d="M13.2104 0.199951H27.2104C27.4173 0.199951 27.6242 0.337882 27.6586 0.510296L33.8655 20.6482C33.9345 20.8896 33.6242 21.062 33.4517 20.8896L23.0035 10.3379C22.7621 10.0965 22.3828 10.1655 22.2449 10.4758L16.0724 23.8896C16.0035 24.062 15.8311 24.1655 15.6586 24.1655H11.2449C10.9 24.1655 10.6931 23.8206 10.8311 23.5103C14.1414 16.6827 17.9345 8.85512 18.969 6.68271C19.038 6.5103 19.0035 6.3034 18.8655 6.16547L16.2449 3.54478L6.03796 23.9241C5.96899 24.0965 5.79658 24.2 5.62416 24.2H1.65865C1.31382 24.2 1.07244 23.8206 1.24485 23.5103L12.7966 0.475813C12.8655 0.3034 13.038 0.199951 13.2104 0.199951Z" fill="white"/>
<path d="M60.3828 24.2H57.6931C57.5897 24.2 57.4862 24.131 57.4173 24.0275L50.3828 10.131C50.3138 9.95857 50.038 9.92409 49.9 10.062L48.7621 11.2C48.6586 11.3034 48.6242 11.4413 48.6931 11.5448C49.4173 13.0965 52.3138 19.131 54.5552 23.7517C54.6586 23.9586 54.5207 24.2 54.2793 24.2H51.4862C51.3828 24.2 51.2449 24.131 51.2104 24.0275L46.5897 13.9931C46.5207 13.7862 46.2449 13.7517 46.1069 13.8896L38.7621 21.3034C38.6931 21.4068 38.5552 21.3034 38.5897 21.2L42.7621 7.64823C42.8311 7.54478 42.9345 7.44133 43.0724 7.44133H52.5207L60.6586 23.7517C60.7621 23.9586 60.6242 24.2 60.3828 24.2Z" fill="white"/>
<path d="M24.6931 29.8206C24.6242 29.7172 24.0035 28.9931 22.9345 28.9931H1.3483C1.10692 28.9931 0.900024 29.2 0.900024 29.4413V47.8206C0.900024 48.062 1.10692 48.2689 1.3483 48.2689H6.27934C6.3483 48.2689 6.38278 48.2344 6.41727 48.1655C6.5552 47.8551 7.02071 46.7689 7.51209 45.6224C8.00347 44.4758 8.52071 43.2689 8.76209 42.7172C9.24485 41.6482 10.3138 40.9931 11.4173 40.9931H21.6242C23.9345 40.9931 25.2104 43.6827 24.2793 45.9586L23.6242 48.062C23.5897 48.1655 23.6586 48.2689 23.7621 48.2689H29.4862C29.5552 48.2689 29.6242 48.2344 29.6242 48.1655L31.5207 41.2344C31.5552 41.0965 31.5207 40.9586 31.4517 40.8551L24.6931 29.8206Z" fill="white"/>
<path d="M12.4862 42.3379C10.8655 42.3379 9.52071 43.6482 9.52071 45.3034C9.52071 46.1999 9.93451 46.9931 10.5552 47.5448C11.0724 47.9931 11.7276 48.2689 12.4517 48.2689C13.1759 48.2689 13.8311 47.9931 14.3483 47.5448C14.969 46.9931 15.3828 46.1999 15.3828 45.3034C15.4517 43.6482 14.1069 42.3379 12.4862 42.3379ZM16.6931 45.3034C16.6931 43.6482 18.038 42.3379 19.6586 42.3379C21.2793 42.3379 22.5897 43.6482 22.5552 45.3034C22.5552 46.1999 22.1414 46.9931 21.5207 47.5448C21.0035 47.9931 20.3483 48.2689 19.6242 48.2689C18.9 48.2689 18.2449 47.9931 17.7276 47.5448C17.1069 46.9931 16.6931 46.1999 16.6931 45.3034Z" fill="white"/>
<path d="M34.7966 29.0275H60.4518C60.6931 29.0275 60.9 29.2 60.8655 29.4413V39.6827C58.2076 39.6827 55.942 40.5101 53.7966 42.0275C53.0526 42.5338 52.4139 42.9241 51.4862 42.9241H50.6586C49.8292 42.8934 49.0961 42.4796 48.4321 42.0137C46.9859 41.0155 45.0559 39.6827 41.4517 39.6827C40.7621 39.6827 40.1414 39.7172 39.5552 39.8206C38.1608 40.0257 36.9136 40.5219 35.6931 41.2C35.6242 41.2689 35.5552 41.2344 35.5207 41.1655L31.6931 34.3034C29.9345 31.7172 31.4517 29.0275 34.7966 29.0275Z" fill="white"/>
<path d="M55.3483 44.2C57.0455 42.9877 58.796 42.3379 60.9 42.3379V45.0275C59.3364 45.0275 58.1277 45.6024 56.8793 46.4555C55.6087 47.3137 54.1955 48.2689 51.4518 48.2689C50.195 48.2689 49.0204 48.1515 47.8311 47.7517C46.9318 47.4106 46.126 46.9072 45.3373 46.3648C44.239 45.6096 43.3421 44.9931 41.4517 44.9931C39.9405 44.9931 38.7733 45.5349 37.5552 46.3724C36.4517 47.1655 35.1759 48.0275 32.9 48.2L33.6931 45.3724C34.4826 45.3724 35.4281 44.5866 36.0466 44.171C37.3121 43.3155 38.7586 42.3379 41.4862 42.3379C44.2162 42.3379 45.6286 43.2934 46.8824 44.1413C47.4683 44.5381 48.0274 44.9411 48.6931 45.2C50.7826 46.2447 53.5472 45.4421 55.3483 44.2Z" fill="white"/>
</svg>
