<svg width="44" height="60" viewBox="0 0 44 60" fill="none" xmlns="http://www.w3.org/2000/svg">
<g clip-path="url(#clip0)">
<path fill-rule="evenodd" clip-rule="evenodd" d="M0 22.9069C0 10.2759 9.86407 0 21.9888 0H22.0112C34.1359 0 44 10.2759 44 22.9069C44 27.8145 42.4474 32.6826 39.6285 36.6145L22.9561 59.8689H21.0438L4.37149 36.6144C1.55257 32.6826 0 27.8145 0 22.9069Z" fill="#BA3F1D"/>
<path d="M20.7057 11.0787H15.1975C15.1297 11.0787 15.0618 11.1194 15.0347 11.1872L10.4898 20.25C10.4219 20.372 10.5169 20.5213 10.6526 20.5213H12.2128C12.2806 20.5213 12.3484 20.4806 12.3756 20.4128L16.3914 12.3947L17.4225 13.4258C17.4768 13.48 17.4904 13.5614 17.4632 13.6293C17.0562 14.484 15.5638 17.5637 14.2614 20.25C14.2071 20.372 14.2885 20.5077 14.4242 20.5077H16.1608C16.2286 20.5077 16.2965 20.467 16.3236 20.3992L18.7521 15.1216C18.8063 14.9995 18.9556 14.9724 19.0506 15.0674L23.1613 19.2189C23.2292 19.2867 23.3513 19.2189 23.3241 19.1239L20.8821 11.2008C20.8685 11.1329 20.7871 11.0787 20.7057 11.0787Z" fill="white"/>
<path d="M32.6989 20.5213H33.7572C33.8521 20.5213 33.9064 20.4263 33.8657 20.3449L30.6639 13.9277H26.9465C26.8923 13.9277 26.8516 13.9684 26.8244 14.0091L25.1828 19.341C25.1692 19.3817 25.2235 19.4223 25.2507 19.3817L28.1404 16.4648C28.1947 16.4105 28.3032 16.4241 28.3304 16.5055L30.1483 20.4534C30.1619 20.4942 30.2162 20.5213 30.2569 20.5213H31.3558C31.4508 20.5213 31.505 20.4263 31.4643 20.3449C30.5825 18.5269 29.4429 16.1527 29.1579 15.5422C29.1308 15.5015 29.1444 15.4472 29.1851 15.4066L29.6328 14.9588C29.6871 14.9046 29.7956 14.9181 29.8227 14.986L32.5904 20.4534C32.6175 20.4942 32.6582 20.5213 32.6989 20.5213Z" fill="white"/>
<path d="M19.7153 22.7327C19.6882 22.692 19.444 22.4071 19.0234 22.4071H10.5305C10.4355 22.4071 10.3541 22.4885 10.3541 22.5835V29.8147C10.3541 29.9096 10.4355 29.991 10.5305 29.991H12.4706C12.4977 29.991 12.5113 29.9775 12.5248 29.9504C12.5787 29.829 12.7598 29.4065 12.9517 28.9587L12.9556 28.9498C13.1489 28.4987 13.3524 28.0238 13.4474 27.8068C13.6373 27.3862 14.0579 27.1284 14.4921 27.1284H18.5079C19.4169 27.1284 19.9188 28.1866 19.5525 29.0821L19.2948 29.9096C19.2812 29.9504 19.3083 29.991 19.349 29.991H21.6011C21.6283 29.991 21.6554 29.9775 21.6554 29.9504L22.4016 27.2234C22.4152 27.1691 22.4016 27.1149 22.3744 27.0741L19.7153 22.7327Z" fill="white"/>
<path d="M13.7458 28.8243C13.7458 28.1731 14.2749 27.6575 14.9126 27.6575C15.5503 27.6575 16.0794 28.1731 16.0522 28.8243C16.0522 29.177 15.8894 29.4891 15.6452 29.7062C15.4417 29.8825 15.184 29.991 14.899 29.991C14.6141 29.991 14.3564 29.8825 14.1529 29.7062C13.9087 29.4891 13.7458 29.177 13.7458 28.8243Z" fill="white"/>
<path d="M17.7345 27.6575C17.0969 27.6575 16.5678 28.1731 16.5678 28.8243C16.5678 29.177 16.7306 29.4891 16.9748 29.7062C17.1783 29.8825 17.4361 29.991 17.721 29.991C18.0059 29.991 18.2637 29.8825 18.4672 29.7062C18.7114 29.4891 18.8742 29.177 18.8742 28.8243C18.8877 28.1731 18.3722 27.6575 17.7345 27.6575Z" fill="white"/>
<path d="M23.6905 22.4207H33.7843C33.8792 22.4207 33.9606 22.4885 33.9471 22.5835V26.6129C32.9013 26.6129 32.01 26.9384 31.1659 27.5354C30.8731 27.7346 30.6218 27.8882 30.2569 27.8882H29.9312C29.6049 27.8761 29.3165 27.7133 29.0552 27.53C28.4863 27.1373 27.7265 26.6129 26.3089 26.6129C26.0375 26.6129 25.7933 26.6264 25.5627 26.6671C25.0141 26.7478 24.5234 26.943 24.0432 27.2098C24.0161 27.2369 23.9889 27.2234 23.9753 27.1963L22.4694 24.4964C21.7775 23.4789 22.3744 22.4207 23.6905 22.4207Z" fill="white"/>
<path d="M33.9607 27.6575C33.1329 27.6575 32.4441 27.9132 31.7764 28.3902C31.0678 28.8789 29.9801 29.1946 29.158 28.7836C28.9226 28.6921 28.7211 28.5548 28.5154 28.4146C28.4922 28.3988 28.4689 28.3829 28.4455 28.3671C27.9523 28.0335 27.3963 27.6575 26.3225 27.6575C25.2493 27.6575 24.6802 28.0422 24.1823 28.3788C24.141 28.4065 24.0959 28.4385 24.0481 28.4724C23.8144 28.6384 23.5142 28.8514 23.2563 28.8514L22.9443 29.9639C23.8397 29.8961 24.3417 29.5569 24.7758 29.2449C25.2551 28.9154 25.7143 28.7022 26.3089 28.7022C27.0526 28.7022 27.4055 28.9448 27.8376 29.2419C28.1479 29.4553 28.465 29.6534 28.8188 29.7876C29.2867 29.9449 29.7489 29.991 30.2433 29.991C31.3224 29.991 31.8784 29.6155 32.3782 29.278C32.8694 28.9423 33.3455 28.7157 33.9607 28.7157V27.6575Z" fill="white"/>
</g>
<defs>
<clipPath id="clip0">
<rect width="44" height="59.8689" fill="white"/>
</clipPath>
</defs>
</svg>
