<?xml version="1.0" encoding="utf-8"?>
<svg version="1.1" xmlns="http://www.w3.org/2000/svg" xmlns:xlink="http://www.w3.org/1999/xlink" height="51" width="57.07317073170725">
  <defs>
    <path id="path-1" opacity="1" fill-rule="evenodd" d="M0,0 L47.07317073170725,0 C52.59232097664725,0 57.07317073170725,4.48084975506 57.07317073170725,10 L57.07317073170725,41 C57.07317073170725,46.51915024494 52.59232097664725,51 47.07317073170725,51 L0,51 L0,0Z"/>
    <path id="path-2" opacity="1" fill-rule="evenodd" d="M37.5756272872859,22 L37.60208602752027,22.023193359375 L16.781346281426522,22.023193359375 C16.166020353692147,22.023193359375 15.667118986504647,22.46051025390625 15.667118986504647,22.99993896484375 C15.667118986504647,23.539306640625 16.166081388848397,23.9766845703125 16.781346281426522,23.9766845703125 L37.60208602752027,23.9766845703125 L32.6339768966609,28.33270263671875 C32.19873519744215,28.71392822265625 32.19873519744215,29.33251953125 32.6339768966609,29.7138671875 C32.8515061935359,29.90472412109375 33.13663192595777,30 33.4216966232234,30 C33.70676132048902,30 33.99185653533277,29.90472412109375 34.2094163497859,29.7138671875 L41.07959457244215,23.69049072265625 C41.51480575408277,23.30926513671875 41.51480575408277,22.69061279296875 41.07959457244215,22.30926513671875 L40.72684188689527,22 L37.5756272872859,22Z"/>
  </defs>
  <g opacity="1">
    <g opacity="1">
      <use xlink:href="#path-1" fill="rgb(147,47,19)" fill-opacity="1"/>
    </g>
    <g transform="translate(28.536564787285897, 26) scale(1, -1) translate(-28.536564787285897, -26)" opacity="0.8041527157738095">
      <use xlink:href="#path-2" fill="rgb(255,255,255)" fill-opacity="1"/>
    </g>
  </g>
</svg>