<?xml version="1.0" encoding="utf-8"?><svg xmlns="http://www.w3.org/2000/svg" xmlns:xlink="http://www.w3.org/1999/xlink"><symbol viewBox="0 0 18.714 9.5" id="btn-arrow" xmlns="http://www.w3.org/2000/svg"><defs><path id="aa" opacity="1" fill-rule="evenodd" d="M10.19 9.488H.517C.232 9.488 0 9.27 0 9s.232-.488.518-.488h9.671L7.881 6.334a.469.469 0 0 1 0-.69.532.532 0 0 1 .366-.144c.133 0 .265.048.366.143l3.192 3.012c.202.19.202.5 0 .69l-.164.155h-1.464l.012-.012z"/></defs><use xlink:href="#aa" transform="matrix(1 0 0 -1 3 13)" opacity=".804"/></symbol><symbol viewBox="0 0 40 40" id="down-arrow" xmlns="http://www.w3.org/2000/svg"><path fill-rule="evenodd" clip-rule="evenodd" d="M38 20c0 9.941-8.059 18-18 18S2 29.941 2 20 10.059 2 20 2s18 8.059 18 18zM20 40c11.046 0 20-8.954 20-20S31.046 0 20 0 0 8.954 0 20s8.954 20 20 20zm-5.235-22.783l5.238 5.095 5.232-5.089a.782.782 0 0 1 1.082 0l.46.446a.729.729 0 0 1 0 1.054l-6.23 6.06a.771.771 0 0 1-.544.217.77.77 0 0 1-.543-.217l-6.236-6.066a.728.728 0 0 1 0-1.053l.458-.447a.771.771 0 0 1 .542-.217.77.77 0 0 1 .541.217z"/></symbol><symbol viewBox="0 0 60 49.208" id="logo" xmlns="http://www.w3.org/2000/svg"><path fill-rule="evenodd" d="M26.31 0h-14a.448.448 0 0 0-.413.282L.345 23.862a.482.482 0 0 0 .414.707h3.965a.448.448 0 0 0 .414-.283L15.345 3.424l2.62 2.683a.502.502 0 0 1 .104.53c-1.035 2.223-4.828 10.236-8.138 17.226-.138.317.069.67.414.67h4.414a.448.448 0 0 0 .413-.282l6.173-13.732a.453.453 0 0 1 .758-.14l10.449 10.8c.172.177.482 0 .414-.246L26.759.318C26.724.14 26.517 0 26.31 0l30.483 24.569h2.69c.241 0 .38-.248.276-.46L51.62 7.414h-9.449c-.138 0-.241.106-.31.212L37.69 21.497c-.035.106.103.212.172.106l7.345-7.59c.138-.14.414-.105.483.107l4.62 10.272c.035.106.173.177.276.177h2.793c.242 0 .38-.248.276-.46-2.241-4.73-5.138-10.907-5.862-12.495-.069-.106-.034-.248.07-.353L49 10.096c.138-.142.414-.106.483.07l7.034 14.226c.07.106.173.177.276.177l-34.759 4.906c1.07 0 1.69.741 1.76.847l6.758 11.296a.5.5 0 0 1 .069.389l-1.897 7.095c0 .07-.069.106-.138.106h-5.724c-.103 0-.172-.106-.138-.212l.655-2.153c.931-2.33-.345-5.084-2.655-5.084H10.517c-1.103 0-2.172.671-2.655 1.765-.241.565-.759 1.8-1.25 2.974a413.99 413.99 0 0 1-1.095 2.604c-.034.07-.069.106-.138.106H.45a.462.462 0 0 1-.449-.46V29.935c0-.247.207-.459.448-.459h21.586l11.863.035h25.655c.241 0 .448.177.414.424l-.07 10.484c-3.62 0-5.586 1.377-7.116 2.482-.876.61-1.202.836-2.194.836h-.827c-.913-.034-1.263-.273-2.207-.918l-.02-.014c-1.446-1.022-3.376-2.386-6.98-2.386-.69 0-1.31.035-1.897.141-1.172.177-2.103.494-2.896.883-.345.176-.656.353-.966.53-.069.07-.138.035-.172-.036l-3.828-7.025c-1.759-2.647-.241-5.4 3.104-5.4l-22.31 13.625c-1.621 0-2.966 1.341-2.966 3.036 0 .918.413 1.73 1.034 2.294a2.843 2.843 0 0 0 1.897.742c.724 0 1.379-.283 1.896-.742a3.102 3.102 0 0 0 1.035-2.294 2.902 2.902 0 0 0-2.897-3.036h7.173c-1.621 0-2.966 1.341-2.966 3.036 0 .918.414 1.73 1.035 2.294a2.843 2.843 0 0 0 1.896.742c.724 0 1.38-.283 1.897-.742a3.102 3.102 0 0 0 1.034-2.294c.035-1.695-1.276-3.036-2.896-3.036h40.86c-2.621.07-3.966 1.024-5.173 1.906-1 .706-1.827 1.271-3.414 1.377-.086 0-.318.009-.551.018-.233.008-.466.017-.552.017-.165 0-.31-.01-.447-.02-.12-.007-.233-.015-.346-.015a1.71 1.71 0 0 1-.414-.07c-.345-.071-.655-.142-.93-.283-.622-.247-1.173-.6-1.725-1.024l-.087-.06c-1.253-.868-2.666-1.846-5.396-1.846-2.727 0-4.174 1-5.44 1.877-.582.416-1.666.931-2.064 1.12-.103.049-.16.076-.151.074-.095.027-.12.035-.138.035L32 49.137c2.276-.176 3.552-1.059 4.655-1.87 1.11-.782 2.006-1.413 3.897-1.413 1.89 0 2.787.631 3.885 1.404.7.502 1.494 1.032 2.494 1.42l.2.07c.13.048.5.173.42.142.158.047.197.055.242.07.414.106.862.177 1.345.212.103 0 .207.01.31.018.104.009.207.018.31.018h.173c.172 0 .345 0 .517-.036v.036c2.848 0 4.26-.978 5.531-1.857l.055-.05.012-.007c1.098-.773 1.995-1.405 3.885-1.405L60 43.136h-.38L26.31 0z"/></symbol><symbol viewBox="0 0 40 40" id="round-arrow" xmlns="http://www.w3.org/2000/svg"><path d="M0 20C0 8.954 8.954 0 20 0s20 8.954 20 20-8.954 20-20 20S0 31.046 0 20z"/><path fill-rule="evenodd" clip-rule="evenodd" d="M17.688 19.997l5.095 5.238a.77.77 0 0 1 .217.54.77.77 0 0 1-.218.543l-.446.458a.73.73 0 0 1-1.053 0l-6.066-6.236a.77.77 0 0 1-.217-.543c0-.206.076-.399.217-.544l6.06-6.23a.729.729 0 0 1 1.054 0l.446.46c.29.298.29.784 0 1.082l-5.089 5.232z"/></symbol></svg>