<?xml version="1.0" encoding="utf-8"?>
<svg version="1.1" xmlns="http://www.w3.org/2000/svg" xmlns:xlink="http://www.w3.org/1999/xlink" height="59.868896484375" width="44">
  <defs>
    <path id="path-1" opacity="1" fill-rule="evenodd" d="M0,22.9068603515625 C0,10.27593994140625 9.86407470703125,0 21.98876953125,0 L22.01123046875,0 C34.13592529296875,0 44,10.27593994140625 44,22.9068603515625 C44,27.814483642578125 42.44743347167969,32.68257141113281 39.628509521484375,36.614501953125 L22.956100463867188,59.868896484375 L21.043792724609375,59.868896484375 L4.371490478515625,36.61439514160156 C1.5525665283203125,32.68257141113281 0,27.814483642578125 0,22.9068603515625Z"/>
    <path id="path-2" opacity="1" fill-rule="evenodd" d="M21.227767944335938,9.995742797851562 L15.455856323242188,9.995742797851562 C15.384765625,9.995742797851562 15.313690185546875,10.039474487304688 15.285247802734375,10.112335205078125 L10.522705078125,19.848236083984375 C10.451629638671875,19.979400634765625 10.5511474609375,20.139724731445312 10.693313598632812,20.139724731445312 L12.328216552734375,20.139724731445312 C12.3992919921875,20.139724731445312 12.470382690429688,20.09600830078125 12.498809814453125,20.02313232421875 L16.7069091796875,11.40948486328125 L16.750030517578125,11.453689575195312 C16.734375,11.453353881835938 16.718551635742188,11.453201293945312 16.702728271484375,11.453201293945312 C16.72186279296875,11.456954956054688 16.741012573242188,11.460464477539062 16.75982666015625,11.463729858398438 L17.787368774414062,12.517166137695312 C17.84423828125,12.575469970703125 17.858444213867188,12.662918090820312 17.83001708984375,12.73577880859375 C17.403518676757812,13.65399169921875 15.839706420898438,16.962448120117188 14.47491455078125,19.848236083984375 C14.418045043945312,19.979400634765625 14.503341674804688,20.125152587890625 14.6455078125,20.125152587890625 L16.465225219726562,20.125152587890625 C16.53631591796875,20.125152587890625 16.607391357421875,20.0814208984375 16.635833740234375,20.008560180664062 L19.180587768554688,14.339004516601562 C19.237457275390625,14.20782470703125 19.393829345703125,14.178680419921875 19.49334716796875,14.28070068359375 L23.80096435546875,18.740554809570312 C23.872039794921875,18.813430786132812 24,18.740554809570312 23.9715576171875,18.638534545898438 L21.412582397460938,10.126922607421875 C21.39837646484375,10.054046630859375 21.313064575195312,9.995742797851562 21.227767944335938,9.995742797851562 L33.698883056640625,20.139724731445312 L34.83918762207031,20.139724731445312 C34.9415283203125,20.139724731445312 35,20.037704467773438 34.956146240234375,19.95025634765625 L31.5059814453125,13.056427001953125 L27.500274658203125,13.056427001953125 C27.441787719726562,13.056427001953125 27.397933959960938,13.10015869140625 27.368698120117188,13.143875122070312 L25.599746704101562,18.871734619140625 C25.585128784179688,18.915451049804688 25.643600463867188,18.959182739257812 25.6728515625,18.915451049804688 L28.786773681640625,15.781890869140625 C28.845245361328125,15.723602294921875 28.962203979492188,15.738174438476562 28.991439819335938,15.82562255859375 L30.950439453125,20.066848754882812 C30.965057373046875,20.110580444335938 31.023529052734375,20.139724731445312 31.067398071289062,20.139724731445312 L32.251556396484375,20.139724731445312 C32.35389709472656,20.139724731445312 32.412384033203125,20.037704467773438 32.36851501464844,19.95025634765625 C31.418258666992188,17.99725341796875 30.190231323242188,15.446670532226562 29.883224487304688,14.790817260742188 C29.853988647460938,14.747085571289062 29.868606567382812,14.688796997070312 29.912460327148438,14.645065307617188 L30.3948974609375,14.164108276367188 C30.453384399414062,14.105804443359375 30.570343017578125,14.120376586914062 30.599578857421875,14.193252563476562 L33.58192443847656,20.066848754882812 C33.61116027832031,20.110580444335938 33.655029296875,20.139724731445312 33.698883056640625,20.139724731445312 L19.451629638671875,22.165603637695312 C19.891632080078125,22.165603637695312 20.147109985351562,22.4716796875 20.175506591796875,22.515396118164062 L22.957412719726562,27.179290771484375 C22.985809326171875,27.2230224609375 23,27.281326293945312 22.985809326171875,27.339614868164062 L22.205169677734375,30.269134521484375 C22.205169677734375,30.29827880859375 22.176773071289062,30.312850952148438 22.148391723632812,30.312850952148438 L19.792282104492188,30.312850952148438 C19.74969482421875,30.312850952148438 19.7213134765625,30.269134521484375 19.735504150390625,30.22540283203125 L20.005172729492188,29.336349487304688 C20.388397216796875,28.374420166015625 19.863250732421875,27.237594604492188 18.912277221679688,27.237594604492188 L14.711029052734375,27.237594604492188 C14.2568359375,27.237594604492188 13.81683349609375,27.514511108398438 13.618118286132812,27.966323852539062 C13.518768310546875,28.19952392578125 13.305862426757812,28.709640502929688 13.103607177734375,29.194244384765625 C12.901351928710938,29.678848266601562 12.709747314453125,30.137954711914062 12.652969360351562,30.269134521484375 C12.638778686523438,30.29827880859375 12.624588012695312,30.312850952148438 12.59619140625,30.312850952148438 L10.5665283203125,30.312850952148438 C10.467178344726562,30.312850952148438 10.38201904296875,30.22540283203125 10.38201904296875,30.123382568359375 L10.38201904296875,22.355072021484375 C10.38201904296875,22.2530517578125 10.467178344726562,22.165603637695312 10.5665283203125,22.165603637695312 L19.451629638671875,22.165603637695312 L24.12933349609375,22.18017578125 L34.81330871582031,22.18017578125 C34.91383361816406,22.18017578125 35,22.2530517578125 34.985626220703125,22.355072021484375 L34.9569091796875,26.683761596679688 C33.4490966796875,26.683761596679688 32.63056945800781,27.252166748046875 31.993255615234375,27.708358764648438 C31.628509521484375,27.960052490234375 31.492660522460938,28.05377197265625 31.079666137695312,28.05377197265625 L30.735015869140625,28.05377197265625 C30.354766845703125,28.03948974609375 30.20928955078125,27.941116333007812 29.815963745117188,27.674835205078125 L29.807785034179688,27.66900634765625 C29.205520629882812,27.2470703125 28.401779174804688,26.683761596679688 26.900848388671875,26.683761596679688 C26.6136474609375,26.683761596679688 26.35516357421875,26.698333740234375 26.111038208007812,26.742050170898438 C25.622802734375,26.814926147460938 25.235076904296875,26.94610595703125 24.90478515625,27.106414794921875 C24.761184692382812,27.179290771484375 24.631942749023438,27.252166748046875 24.502700805664062,27.325042724609375 C24.473983764648438,27.35418701171875 24.445266723632812,27.339614868164062 24.430908203125,27.310470581054688 L22.836929321289062,24.410110473632812 C22.10455322265625,23.317001342773438 22.736404418945312,22.18017578125 24.12933349609375,22.18017578125 L15.431289672851562,27.805999755859375 C14.573974609375,27.805999755859375 13.862579345703125,28.359832763671875 13.862579345703125,29.059417724609375 C13.862579345703125,29.438369750976562 14.081466674804688,29.773590087890625 14.409805297851562,30.00677490234375 C14.68341064453125,30.196243286132812 15.029983520507812,30.312850952148438 15.413040161132812,30.312850952148438 C15.796096801757812,30.312850952148438 16.142669677734375,30.196243286132812 16.416290283203125,30.00677490234375 C16.611557006835938,29.86810302734375 16.768096923828125,29.693344116210938 16.862930297851562,29.4947509765625 C16.961471557617188,29.693344116210938 17.124176025390625,29.86810302734375 17.327102661132812,30.00677490234375 C17.6114501953125,30.196243286132812 17.971633911132812,30.312850952148438 18.369720458984375,30.312850952148438 C18.767807006835938,30.312850952148438 19.12799072265625,30.196243286132812 19.412338256835938,30.00677490234375 C19.753555297851562,29.773590087890625 19.981033325195312,29.438369750976562 19.981033325195312,29.059417724609375 C20,28.359832763671875 19.279647827148438,27.805999755859375 18.388671875,27.805999755859375 C17.70703125,27.805999755859375 17.114151000976562,28.130172729492188 16.873199462890625,28.595779418945312 C16.657684326171875,28.130172729492188 16.087188720703125,27.805999755859375 15.431289672851562,27.805999755859375 L34.84153747558594,27.805999755859375 C33.74664306640625,27.83514404296875 33.184783935546875,28.228668212890625 32.68055725097656,28.593032836914062 C32.26275634765625,28.884521484375 31.917007446289062,29.117721557617188 31.254302978515625,29.161453247070312 C31.218292236328125,29.161453247070312 31.121047973632812,29.165084838867188 31.0238037109375,29.168731689453125 C30.926559448242188,29.172378540039062 30.829315185546875,29.176025390625 30.793289184570312,29.176025390625 C30.72442626953125,29.176025390625 30.66363525390625,29.17193603515625 30.606719970703125,29.167999267578125 C30.556442260742188,29.164657592773438 30.509201049804688,29.161453247070312 30.461944580078125,29.161453247070312 C30.404312133789062,29.161453247070312 30.346694946289062,29.146865844726562 30.2890625,29.132293701171875 C30.144989013671875,29.1031494140625 30.015335083007812,29.074005126953125 29.90008544921875,29.015701293945312 C29.640762329101562,28.913681030273438 29.410263061523438,28.767929077148438 29.179763793945312,28.593032836914062 L29.143600463867188,28.568252563476562 C28.619781494140625,28.209869384765625 28.029678344726562,27.805999755859375 26.889114379882812,27.805999755859375 C25.749557495117188,27.805999755859375 25.14520263671875,28.219192504882812 24.616485595703125,28.580795288085938 C24.373077392578125,28.75274658203125 23.92022705078125,28.96533203125 23.753890991210938,29.043426513671875 C23.711013793945312,29.063552856445312 23.687164306640625,29.074752807617188 23.69085693359375,29.074005126953125 C23.6512451171875,29.084930419921875 23.640426635742188,29.088577270507812 23.633224487304688,29.088577270507812 L23.3018798828125,30.28369140625 C24.252716064453125,30.210830688476562 24.785751342773438,29.846450805664062 25.24676513671875,29.511245727539062 C25.710220336914062,29.1888427734375 26.084945678710938,28.928253173828125 26.874710083007812,28.928253173828125 C27.664474487304688,28.928253173828125 28.0391845703125,29.1888427734375 28.498031616210938,29.508026123046875 C28.790786743164062,29.715286254882812 29.12213134765625,29.93389892578125 29.5399169921875,30.094223022460938 L29.623184204101562,30.123382568359375 C29.677642822265625,30.14276123046875 29.832733154296875,30.19451904296875 29.799240112304688,30.181671142578125 C29.86492919921875,30.200912475585938 29.881072998046875,30.20440673828125 29.90008544921875,30.210830688476562 C30.072967529296875,30.254547119140625 30.26025390625,30.28369140625 30.461944580078125,30.29827880859375 C30.505157470703125,30.29827880859375 30.548385620117188,30.301910400390625 30.591598510742188,30.305557250976562 C30.63482666015625,30.3092041015625 30.67803955078125,30.312850952148438 30.72125244140625,30.312850952148438 L30.793289184570312,30.312850952148438 C30.865325927734375,30.312850952148438 30.937362670898438,30.312850952148438 31.009384155273438,30.29827880859375 L31.009384155273438,30.312850952148438 C32.198944091796875,30.312850952148438 32.78932189941406,29.909133911132812 33.32020568847656,29.546356201171875 L33.34324645996094,29.52581787109375 L33.347869873046875,29.522613525390625 C33.80671691894531,29.203414916992188 34.181427001953125,28.942825317382812 34.97119140625,28.942825317382812 L35,27.805999755859375 L34.84153747558594,27.805999755859375 L21.227767944335938,9.995742797851562Z"/>
  </defs>
  <g opacity="1">
    <g opacity="1">
      <use xlink:href="#path-1" fill="rgb(186,63,29)" fill-opacity="1"/>
    </g>
    <g opacity="1">
      <use xlink:href="#path-2" fill="rgb(255,255,255)" fill-opacity="1"/>
    </g>
  </g>
</svg>