<svg width="18" height="17" viewBox="0 0 18 17" fill="none" xmlns="http://www.w3.org/2000/svg">
<path fill-rule="evenodd" clip-rule="evenodd" d="M11.6257 2.5C10.4844 0.434744 7.51561 0.43474 6.37429 2.5L0.499968 12.549C-0.605006 14.5484 0.841207 17 3.12569 17H14.8743C17.1588 17 18.605 14.5484 17.5 12.549L11.6257 2.5ZM9 3.49999C8.17157 3.49999 7.5 4.17157 7.5 4.99999V9.99999C7.5 10.8284 8.17157 11.5 9 11.5C9.82842 11.5 10.5 10.8284 10.5 9.99999V4.99999C10.5 4.17157 9.82842 3.49999 9 3.49999ZM9 15.5C9.82842 15.5 10.5 14.8284 10.5 14C10.5 13.1716 9.82842 12.5 9 12.5C8.17157 12.5 7.5 13.1716 7.5 14C7.5 14.8284 8.17157 15.5 9 15.5Z" fill="#DA4216"/>
</svg>
