<?xml version="1.0" encoding="utf-8"?>
<svg version="1.1" xmlns="http://www.w3.org/2000/svg" xmlns:xlink="http://www.w3.org/1999/xlink" height="16.00000309774032" width="17.872822835237912">
  <defs>
    <path id="path-1" opacity="1" fill-rule="evenodd" d="M17.370213582308224,11.460710614685354 L11.543858601839474,1.4559956488650414 C11.018849446566037,0.5551167426150414 10.048863484651974,0.0000019965212914030417 8.998799397737912,0.0000019965212914030417 C7.948781087191037,0.0000019965212914030417 6.978795125276974,0.5551167426150414 6.453770711214474,1.4559956488650414 L0.5250139973472869,11.632036298279104 C0.000004842073849431472,12.532915204529104 0.000004842073849431472,13.643144696716604 0.5250139973472869,14.544023602966604 C1.0500231526207244,15.444887250427541 2.0200243733238494,16.00000199652129 3.0700426838707244,16.00000199652129 L14.9340258381676,16.00000199652129 C16.557087971956662,16.00000199652129 17.872822835237912,14.696245282654104 17.872822835237912,13.088029950622854 L17.370213582308224,11.460710614685354 L9.664708211214474,9.617754071716604 L10.285756184847287,4.244249433044729 L9.706318928987912,3.511491864685354 L8.294545247347287,3.511491864685354 C7.904027058870724,3.511491864685354 7.676701619417599,3.8255330023806664 7.718312337191037,4.241075604919729 L8.339375569612912,9.617754071716604 C8.38098628738635,10.001573651794729 8.640294148714474,10.245836347107229 9.002034261019162,10.245836347107229 C9.363789632112912,10.245836347107229 9.623082234651974,10.004747479919729 9.664708211214474,9.617754071716604 L10.256932332308224,12.434541791443166 C10.256932332308224,13.122881024841604 9.722325398714474,13.649461835388479 9.002034261019162,13.649461835388479 C8.28174312332385,13.649461835388479 7.747120930941037,13.122881024841604 7.747120930941037,12.434541791443166 L7.747120930941037,12.406023114685354 C7.747120930941037,11.720827191833791 8.28174312332385,11.191087811950979 9.002034261019162,11.191087811950979 C9.722325398714474,11.191087811950979 10.256932332308224,11.717683881286916 10.256932332308224,12.406023114685354 L10.256932332308224,12.434541791443166 L17.370213582308224,11.460710614685354Z"/>
  </defs>
  <g opacity="1">
    <use xlink:href="#path-1" fill="rgb(218,66,22)" fill-opacity="1"/>
  </g>
</svg>