<?xml version="1.0" encoding="utf-8"?>
<svg version="1.1" xmlns="http://www.w3.org/2000/svg" xmlns:xlink="http://www.w3.org/1999/xlink" height="9.5" width="18.71413081038429">
  <defs>
    <path id="path-1" opacity="1" fill-rule="evenodd" d="M10.189254760742188,9.4884033203125 L0.517578125,9.4884033203125 C0.23175048828125,9.4884033203125 0,9.269744873046875 0,9.000030517578125 C0,8.7303466796875 0.231781005859375,8.51165771484375 0.517578125,8.51165771484375 L10.189254760742188,8.51165771484375 L7.8814544677734375,6.333648681640625 C7.6792755126953125,6.143035888671875 7.6792755126953125,5.833740234375 7.8814544677734375,5.64306640625 C7.982513427734375,5.547637939453125 8.114959716796875,5.5 8.24737548828125,5.5 C8.379791259765625,5.5 8.512237548828125,5.547637939453125 8.613296508789062,5.64306640625 L11.80462646484375,8.654754638671875 C12.006790161132812,8.845367431640625 12.006790161132812,9.154693603515625 11.80462646484375,9.345367431640625 L11.640762329101562,9.5 L10.176971435546875,9.5 L10.189254760742188,9.4884033203125Z"/>
  </defs>
  <g transform="translate(8.978126525878906, 5.5) scale(1, -1) translate(-5.978126525878906, -7.5)" opacity="0.8041527157738095">
    <use xlink:href="#path-1" fill="rgb(255,255,255)" fill-opacity="1"/>
  </g>
</svg>