<svg width="40" height="40" viewBox="0 0 40 40" fill="none" xmlns="http://www.w3.org/2000/svg">
<path fill-rule="evenodd" clip-rule="evenodd" d="M38 20C38 29.9411 29.9411 38 20 38C10.0589 38 2 29.9411 2 20C2 10.0589 10.0589 2 20 2C29.9411 2 38 10.0589 38 20ZM20 40C31.0457 40 40 31.0457 40 20C40 8.9543 31.0457 0 20 0C8.95431 0 0 8.9543 0 20C0 31.0457 8.95431 40 20 40ZM14.7654 17.2174L20.003 22.3117L25.2345 17.2231C25.533 16.9327 26.019 16.9327 26.3175 17.2231L26.7762 17.6694C26.9205 17.8096 27 17.9966 27 18.1961C27 18.3957 26.9205 18.5827 26.7762 18.7229L20.5465 24.7828C20.4018 24.9236 20.2089 25.0005 20.0026 25C19.7973 25.0005 19.6041 24.9235 19.4596 24.7828L13.2238 18.7172C13.0794 18.5771 13 18.3901 13 18.1906C13 17.9911 13.0794 17.8039 13.2238 17.6638L13.6825 17.2174C13.8266 17.0772 14.0188 17 14.224 17C14.4291 17 14.6215 17.0772 14.7654 17.2174Z" fill="#F59075"/>
</svg>
