<?xml version="1.0" encoding="utf-8"?>
<svg version="1.1" xmlns="http://www.w3.org/2000/svg" xmlns:xlink="http://www.w3.org/1999/xlink" height="49.20762741546605" width="60">
  <path id="path-1" opacity="1" fill-rule="evenodd" d="M26.310344696044922,2.6315728973713703e-7 L12.310344696044922,2.6315728973713703e-7 C12.137931823730469,2.6315728973713703e-7 11.96551513671875,0.10590007394830536 11.896551132202148,0.28239848703424286 L0.34482574462890625,23.86252238840143 C0.17241287231445312,24.180221820774477 0.4137916564941406,24.568512226047915 0.7586193084716797,24.568512226047915 L4.7241363525390625,24.568512226047915 C4.896551132202148,24.568512226047915 5.068964004516602,24.462616229954165 5.137929916381836,24.286117816868227 L15.344825744628906,3.424061084690493 L17.96551513671875,6.106830860081118 C18.10344696044922,6.248028064670962 18.13793182373047,6.459823871555727 18.06896209716797,6.636322284641665 C17.034481048583984,8.860199237766665 13.241378784179688,16.87320354074518 9.931034088134766,23.86252238840143 C9.793102264404297,24.180221820774477 10,24.533218646946352 10.344825744628906,24.533218646946352 L14.758621215820312,24.533218646946352 C14.931034088134766,24.533218646946352 15.103446960449219,24.42731502145807 15.172412872314453,24.250816608372133 L21.344825744628906,10.519279743137758 C21.482757568359375,10.201580310764712 21.86206817626953,10.13098170846979 22.10344696044922,10.37807872385065 L32.55172348022461,21.17975642770807 C32.72413635253906,21.356251026096743 33.034481048583984,21.17975642770807 32.96551513671875,20.932655597629946 L26.758621215820312,0.317695880833071 C26.724136352539062,0.1411974677471335 26.517242431640625,2.6315728973713703e-7 26.310344696044922,2.6315728973713703e-7 L56.79310607910156,24.568512226047915 L59.482757568359375,24.568512226047915 C59.72413635253906,24.568512226047915 59.86206817626953,24.32141902536432 59.75862121582031,24.10961940378229 L51.620689392089844,7.412914539280337 L42.17241668701172,7.412914539280337 C42.03448486328125,7.412914539280337 41.93103790283203,7.518814350071352 41.8620719909668,7.624710346165102 L37.68965530395508,21.497452045383852 C37.655174255371094,21.603348041477602 37.79310607910156,21.709247852268618 37.8620719909668,21.603348041477602 L45.20690155029297,14.013939166965883 C45.34483337402344,13.872738147678774 45.620689392089844,13.908039356174868 45.689659118652344,14.119835163059633 L50.31034851074219,24.392013812961977 C50.34483337402344,24.49791743845026 50.482757568359375,24.568512226047915 50.586212158203125,24.568512226047915 L53.379310607910156,24.568512226047915 C53.620689392089844,24.568512226047915 53.75862121582031,24.32141902536432 53.655174255371094,24.10961940378229 C51.413795471191406,19.379474903049868 48.517242431640625,13.202045703831118 47.79310607910156,11.613563800754946 C47.72413635253906,11.507667804661196 47.75862121582031,11.366466785374087 47.86206817626953,11.260570789280337 L49,10.095684314670962 C49.13793182373047,9.954483295383852 49.413795471191406,9.989784503879946 49.482757568359375,10.166282916965883 L56.517242431640625,24.392013812961977 C56.586212158203125,24.49791743845026 56.689659118652344,24.568512226047915 56.79310607910156,24.568512226047915 L22.03448486328125,29.47515895456354 C23.10344696044922,29.47515895456354 23.724136352539062,30.216453815403383 23.793106079101562,30.322349811497133 L30.55172348022461,41.61821773141901 C30.620689392089844,41.72411372751276 30.655174255371094,41.8653109321026 30.620689392089844,42.00651576608698 L28.724136352539062,49.10173060983698 C28.724136352539062,49.172333026829165 28.655174255371094,49.20762660593073 28.586204528808594,49.20762660593073 L22.86206817626953,49.20762660593073 C22.758621215820312,49.20762660593073 22.689655303955078,49.10173060983698 22.724136352539062,48.99583461374323 L23.379310607910156,46.842560077610415 C24.310344696044922,44.512787128391665 23.03448486328125,41.75941493600885 20.724136352539062,41.75941493600885 L10.517242431640625,41.75941493600885 C9.413793563842773,41.75941493600885 8.344827651977539,42.43010737985651 7.862068176269531,43.52439906686823 C7.620689392089844,44.0891878852276 7.103448867797852,45.324676776829165 6.612068176269531,46.498382831516665 C6.120689392089844,47.672096515598696 5.655172348022461,48.784034992161196 5.517242431640625,49.10173060983698 C5.482757568359375,49.172333026829165 5.448276519775391,49.20762660593073 5.379310607910156,49.20762660593073 L0.4482765197753906,49.20762660593073 C0.2068958282470703,49.20762660593073 0,48.99583461374323 0,48.7487337836651 L0,29.934051776829165 C0,29.68695857614557 0.2068958282470703,29.47515895456354 0.4482765197753906,29.47515895456354 L22.03448486328125,29.47515895456354 L33.896549224853516,29.510460163059633 L59.551719665527344,29.510460163059633 C59.79310607910156,29.510460163059633 60,29.68695857614557 59.96551513671875,29.934051776829165 L59.89654541015625,40.41803004831354 C56.27586364746094,40.41803004831354 54.310340881347656,41.794716144504946 52.779998779296875,42.89959743112604 C51.904136657714844,43.50921657175104 51.57792663574219,43.73619105905573 50.586204528808594,43.73619105905573 L49.75862121582031,43.73619105905573 C48.84552001953125,43.70159938425104 48.49620056152344,43.46332576364557 47.551719665527344,42.81840541452448 L47.532066345214844,42.80428340524713 C46.08586120605469,41.78236415475885 44.155860900878906,40.41803004831354 40.55172348022461,40.41803004831354 C39.86206817626953,40.41803004831354 39.24137878417969,40.45333125680963 38.65517044067383,40.559234882297915 C37.482757568359375,40.73573329538385 36.55172348022461,41.05342891305963 35.75861740112305,41.44171931833307 C35.41379165649414,41.61821773141901 35.10344696044922,41.794716144504946 34.7931022644043,41.97121455759088 C34.72413635253906,42.04181697458307 34.65517044067383,42.00651576608698 34.620689392089844,41.93591334909479 L30.793102264404297,34.91130092233698 C29.034481048583984,32.263824726047915 30.55172348022461,29.510460163059633 33.896549224853516,29.510460163059633 L11.586206436157227,43.13610103220026 C9.965517044067383,43.13610103220026 8.620689392089844,44.47748591989557 8.620689392089844,46.17186763376276 C8.620689392089844,47.08965327829401 9.034482955932617,47.90154292673151 9.655172348022461,48.466339374485415 C10.172412872314453,48.92523219675104 10.827585220336914,49.20762660593073 11.55172348022461,49.20762660593073 C12.275863647460938,49.20762660593073 12.931034088134766,48.92523219675104 13.44827651977539,48.466339374485415 C14.068965911865234,47.90154292673151 14.482757568359375,47.08965327829401 14.482757568359375,46.17186763376276 C14.55172348022461,44.47748591989557 13.206897735595703,43.13610103220026 11.586206436157227,43.13610103220026 L18.758621215820312,43.13610103220026 C17.137928009033203,43.13610103220026 15.793102264404297,44.47748591989557 15.793102264404297,46.17186763376276 C15.793102264404297,47.08965327829401 16.206893920898438,47.90154292673151 16.82758331298828,48.466339374485415 C17.344825744628906,48.92523219675104 18,49.20762660593073 18.724136352539062,49.20762660593073 C19.448272705078125,49.20762660593073 20.10344696044922,48.92523219675104 20.620689392089844,48.466339374485415 C21.241378784179688,47.90154292673151 21.655170440673828,47.08965327829401 21.655170440673828,46.17186763376276 C21.689655303955078,44.47748591989557 20.379310607910156,43.13610103220026 18.758621215820312,43.13610103220026 L59.620689392089844,43.13610103220026 C57,43.206703449192446 55.655174255371094,44.15979030221979 54.448272705078125,45.04228236764948 C53.448272705078125,45.748268390598696 52.620689392089844,46.3130648383526 51.03448486328125,46.41896083444635 C50.948272705078125,46.41896083444635 50.71551513671875,46.42778804391901 50.482757568359375,46.436615253391665 C50.25,46.44543483346979 50.017242431640625,46.454262042942446 49.9310302734375,46.454262042942446 C49.766204833984375,46.454262042942446 49.620689392089844,46.44438197702448 49.48448181152344,46.434845233860415 C49.3641357421875,46.426727558079165 49.25103759765625,46.41896083444635 49.13793182373047,46.41896083444635 C49,46.41896083444635 48.86206817626953,46.38365962595026 48.72413635253906,46.348366046848696 C48.379310607910156,46.27776362985651 48.0689697265625,46.20716884225885 47.79310607910156,46.06596400827448 C47.17241668701172,45.81887080759088 46.620689392089844,45.46587398141901 46.0689697265625,45.04228236764948 L45.98241424560547,44.982269550266665 C44.72862243652344,44.11425044626276 43.31620788574219,43.13610103220026 40.586204528808594,43.13610103220026 C37.858619689941406,43.13610103220026 36.41206741333008,44.13684108346979 35.14655303955078,45.01262691110651 C34.56382751464844,45.42921474069635 33.47953414916992,45.944244647922915 33.08161544799805,46.1332552680401 C32.97916030883789,46.181923175754946 32.92220687866211,46.20897700876276 32.931034088134766,46.20716884225885 C32.83620834350586,46.23364284128229 32.81034469604492,46.242462421360415 32.7931022644043,46.242462421360415 L32,49.13703181833307 C34.27586364746094,48.96053340524713 35.55172348022461,48.078041339817446 36.655174255371094,47.266151691379946 C37.76448440551758,46.485328937473696 38.661380767822266,45.85417201608698 40.55172348022461,45.85417201608698 C42.44207000732422,45.85417201608698 43.338966369628906,46.485328937473696 44.43724060058594,47.25838496774713 C45.13793182373047,47.760345722141665 45.9310302734375,48.28984096139948 46.9310302734375,48.678138996067446 C46.99767303466797,48.70106532663385 47.064109802246094,48.72460200876276 47.130340576171875,48.7487337836651 C47.26068878173828,48.795685077610415 47.63188171386719,48.921051288547915 47.551727294921875,48.889930988254946 C47.70896911621094,48.93653133005182 47.747589111328125,48.94499995798151 47.79310607910156,48.96053340524713 C48.20689392089844,49.06642940134088 48.655174255371094,49.13703181833307 49.13793182373047,49.172333026829165 C49.24137878417969,49.172333026829165 49.344825744628906,49.18115260690729 49.448272705078125,49.189979816379946 C49.551727294921875,49.1988070258526 49.655174255371094,49.20762660593073 49.75862121582031,49.20762660593073 L49.9310302734375,49.20762660593073 C50.10344696044922,49.20762660593073 50.27586364746094,49.20762660593073 50.448272705078125,49.172333026829165 L50.448272705078125,49.20762660593073 C53.29551696777344,49.20762660593073 54.7086181640625,48.229828144016665 55.97930908203125,47.351227069797915 L56.03448486328125,47.30145289987604 L56.04551696777344,47.29368617624323 C57.14379119873047,46.52062251657526 58.040687561035156,45.88946559518854 59.9310302734375,45.88946559518854 L60,43.13610103220026 L59.620689392089844,43.13610103220026 L26.310344696044922,2.6315728973713703e-7Z"/>
</svg>