<svg width="40" height="40" viewBox="0 0 40 40" fill="none" xmlns="http://www.w3.org/2000/svg">
<path d="M-4.02558e-06 20C2.17835e-06 8.95428 8.95431 -1.74371e-05 20 -1.12332e-05C31.0457 -5.02928e-06 40 8.9543 40 20C40 31.0457 31.0457 40 20 40C8.95429 40 -1.02295e-05 31.0457 -4.02558e-06 20Z" fill="#BA3F1D"/>
<path fill-rule="evenodd" clip-rule="evenodd" d="M17.6883 19.997L22.7825 25.2346C22.9228 25.3785 23 25.5708 23 25.7759C23 25.9812 22.9228 26.1734 22.7825 26.3175L22.3362 26.7762C22.1961 26.9205 22.0089 27 21.8094 27C21.6099 27 21.4229 26.9205 21.2827 26.7762L15.2172 20.5404C15.0765 20.3958 14.9994 20.2027 15 19.9974C14.9994 19.7911 15.0764 19.5982 15.2172 19.4535L21.2771 13.2238C21.4173 13.0794 21.6043 13 21.8039 13C22.0034 13 22.1904 13.0794 22.3306 13.2238L22.7769 13.6825C23.0673 13.981 23.0673 14.467 22.7769 14.7655L17.6883 19.997Z" fill="white"/>
</svg>
